<?xml version="1.0" encoding="UTF-8"?>
<svg width="60px" height="54px" viewBox="0 0 60 54" version="1.1" xmlns="http://www.w3.org/2000/svg" xmlns:xlink="http://www.w3.org/1999/xlink">
    <!-- Generator: Sketch 52.2 (67145) - http://www.bohemiancoding.com/sketch -->
    <title>icon_plane</title>
    <desc>Created with Sketch.</desc>
    <g id="Page-1" stroke="none" stroke-width="1" fill="none" fill-rule="evenodd">
        <g id="icon_plane" transform="translate(-12.000000, -9.000000)" fill="#FFFFFF">
            <path d="M60.3,10.7 C60.3,10.7 60.2,10.7 60.2,10.7 C58.4,10.7 53.9,13.3 51.4,14.9 L41.8,24.4 C41.5,24.7 41.1,24.8 40.6,24.8 L12.8,21.6 L11.6,23.5 L31.1,32.3 C31.5,32.5 31.7,32.9 31.8,33.3 C31.9,33.7 31.8,34.1 31.5,34.4 L22.2,46 C21.8,46.4 21.3,46.6 20.7,46.5 L11,43.6 L10.6,44 L21.2,50.7 C21.4,50.8 21.5,51 21.6,51.1 L27.9,61.3 L28.2,60.9 L25.6,51.5 C25.5,51 25.6,50.4 26,50.1 L37.3,40.4 C37.6,40.1 38,40 38.5,40.1 C38.9,40.2 39.3,40.4 39.5,40.8 L48.3,60.3 L50.2,59.1 L47,31.3 C46.9,30.9 47.1,30.4 47.4,30.1 L56.9,20.5 C59.4,16.8 61.3,12.7 61.1,11.6 L60.3,10.7 Z" id="Path" transform="translate(35.857226, 36.000000) rotate(45.000000) translate(-35.857226, -36.000000) "></path>
        </g>
    </g>
</svg>