<?xml version="1.0" encoding="UTF-8"?>
<svg width="160px" height="161px" viewBox="0 0 160 161" version="1.1" xmlns="http://www.w3.org/2000/svg" xmlns:xlink="http://www.w3.org/1999/xlink">
    <!-- Generator: Sketch 52.2 (67145) - http://www.bohemiancoding.com/sketch -->
    <title>icon_checkin@2x</title>
    <desc>Created with Sketch.</desc>
    <g id="Page-1" stroke="none" stroke-width="1" fill="none" fill-rule="evenodd">
        <g id="icon_checkin" transform="translate(-1.000000, -1.000000)" fill="#FFFFFF" fill-rule="nonzero">
            <path d="M94.6,3.6 L85,13.5 C84,14.5 83.7,16 84.4,17.3 C85.7,19.9 85.4,23.1 83.2,25.3 C81.1,27.5 77.9,28 75.3,26.7 C74,26.1 72.5,26.4 71.5,27.4 L3.4,97.8 C0.1,101.2 0.2,106.6 3.6,109.9 L54.8,159.5 C58.2,162.8 63.6,162.7 66.9,159.3 L135,88.9 C136,87.9 136.3,86.4 135.6,85.1 C134.3,82.5 134.6,79.3 136.8,77.1 C138.9,74.9 142.1,74.4 144.7,75.7 C146,76.3 147.5,76 148.5,75 L158.1,65.1 C161.4,61.7 161.3,56.3 157.9,53 L106.7,3.4 C103.3,0.1 97.9,0.2 94.6,3.6 Z M80.7,87.4 C80.9,87.6 81,87.8 81.1,88 L92.1,111.5 C92.5,112.4 92.3,113.5 91.4,114.2 L89.2,115.9 C88.2,116.6 86.9,116.4 86.1,115.5 L71.9,96.5 C71.9,96.5 71.8,96.6 71.8,96.6 C66.9,101.6 62.2,106.1 58.2,109.5 L60.5,117.5 C60.6,117.8 60.3,118.4 59.8,118.8 L58.4,119.8 C57.8,120.2 57.1,120.4 56.9,120 L52.4,114 C49.5,116 47.5,116.9 46.9,116.3 C46.3,115.7 47.1,113.7 49.1,110.7 L43,106.4 C42.7,106.2 42.8,105.5 43.2,104.9 L44.2,103.5 C44.6,103 45.1,102.7 45.4,102.8 L53.5,104.8 C56.8,100.7 61.1,95.8 66,90.8 C66,90.8 66.1,90.7 66.1,90.7 L46.7,77 C45.7,76.3 45.5,74.9 46.2,74 L47.8,71.8 C48.4,71 49.5,70.7 50.4,71.1 L74.2,81.4 C74.4,81.5 74.6,81.6 74.8,81.8 C82.6,73.9 88.4,68.7 90.9,71.1 C93.4,73.4 88.4,79.4 80.7,87.4 Z M131.5,62.5 C133.2,64.8 133.3,68.1 131.6,70.4 C128.9,74.3 123.2,74.4 120.4,70.6 C118.7,68.3 118.6,65 120.3,62.7 C122.9,58.8 128.6,58.7 131.5,62.5 Z M115.6,47.2 C117.3,49.5 117.4,52.8 115.7,55.1 C113,59 107.3,59.1 104.5,55.3 C102.8,53 102.7,49.7 104.4,47.4 C107.1,43.4 112.7,43.3 115.6,47.2 Z M99.7,31.8 C101.4,34.1 101.5,37.4 99.8,39.7 C97.1,43.6 91.4,43.7 88.6,39.9 C86.9,37.6 86.8,34.3 88.5,32 C91.2,28.1 96.9,28 99.7,31.8 Z" id="Shape"></path>
        </g>
    </g>
</svg>