<?xml version="1.0" encoding="UTF-8"?>
<svg width="79px" height="92px" viewBox="0 0 79 92" version="1.1" xmlns="http://www.w3.org/2000/svg" xmlns:xlink="http://www.w3.org/1999/xlink">
    <!-- Generator: Sketch 52.2 (67145) - http://www.bohemiancoding.com/sketch -->
    <title>icon_manage_white</title>
    <desc>Created with Sketch.</desc>
    <g id="Page-1" stroke="none" stroke-width="1" fill="none" fill-rule="evenodd">
        <g id="icon_manage_white" fill="#FFFFFF">
            <path d="M59.2,44.4 L29.8,44.4 C29.2,44.4 28.8,44.9 28.8,45.4 L28.8,49.4 C28.8,50 29.2,50.4 29.8,50.4 L59.2,50.4 C59.7,50.4 60.2,50 60.2,49.4 L60.2,45.4 C60.2,44.8 59.7,44.4 59.2,44.4" id="Path"></path>
            <path d="M59.2,31.9 L29.8,31.9 C29.2,31.9 28.8,32.4 28.8,32.9 L28.8,36.9 C28.8,37.5 29.2,37.9 29.8,37.9 L59.2,37.9 C59.7,37.9 60.2,37.5 60.2,36.9 L60.2,32.9 C60.2,32.3 59.7,31.9 59.2,31.9" id="Path"></path>
            <path d="M59.2,19.4 L29.8,19.4 C29.2,19.4 28.8,19.9 28.8,20.4 L28.8,24.4 C28.8,25 29.2,25.4 29.8,25.4 L59.2,25.4 C59.7,25.4 60.2,25 60.2,24.4 L60.2,20.4 C60.2,19.8 59.7,19.4 59.2,19.4" id="Path"></path>
            <path d="M68.3,0 L10,0 C4.5,0 0,4.5 0,10 L0,81.5 C0,87 4.5,91.5 10,91.5 L68.3,91.5 C73.8,91.5 78.3,87 78.3,81.5 L78.3,10 C78.3,4.5 73.8,0 68.3,0 Z M8.8,69.3 C6.6,69.3 4.8,67.5 4.8,65.3 C4.8,63.1 6.6,61.3 8.8,61.3 C11,61.3 12.8,63.1 12.8,65.3 C12.8,67.5 11,69.3 8.8,69.3 Z M8.8,31.5 C6.6,31.5 4.8,29.7 4.8,27.5 C4.8,25.3 6.6,23.5 8.8,23.5 C11,23.5 12.8,25.3 12.8,27.5 C12.8,29.7 11,31.5 8.8,31.5 Z M70.3,81.5 C70.3,82.6 69.4,83.5 68.3,83.5 L18,83.5 L18,8.2 C18,8.1 18,8 18,8 L68.4,8 C69.5,8 70.4,8.9 70.4,10 L70.4,81.5 L70.3,81.5 Z" id="Shape" fill-rule="nonzero"></path>
        </g>
    </g>
</svg>